PathFileType  4	(X/Y/Z) C:\Users\antoi\Documents\MyRepositories\mobilecap\ResultsAnalysis
DataRate	CameraRate	NumFrames	NumMarkers	Units	OrigDataRate	OrigDataStartFrame	OrigNumFrames
100.0	100.0	4	51	mm	100.0	225	256
Frame#	Time	r_knee			r_shank_antsup			r_ankle			r_calc			r_5meta			r_toe			L_knee			L_shank_antsup			L_ankle			L_calc			L_5meta			L_toe			r_sh2			r_sh3			r_sh4			L_sh2			L_sh3			r_thigh1			r_thigh2			r_thigh3			r_thigh4			r_thigh5			L_thigh1			L_thigh2			L_thigh3			L_thigh4			r.ASIS			r.PSIS			L.ASIS			L.PSIS			C7			R_Shoulder			L_Shoulder			R_Sternum			L_Sternum			R_humerus			R_elbow_med			R_elbow_lat			R_forearm			R_wrist_radius			R_wrist_ulna			L_humerus			L_elbow_med			L_elbow_lat			L_forearm			L_wrist_radius			L_wrist_ulna			R_HJC			L_HJC			R_HJC_reg			L_HJC_reg			
		X1	Y1	Z1	X2	Y2	Z2	X3	Y3	Z3	X4	Y4	Z4	X5	Y5	Z5	X6	Y6	Z6	X7	Y7	Z7	X8	Y8	Z8	X9	Y9	Z9	X10	Y10	Z10	X11	Y11	Z11	X12	Y12	Z12	X13	Y13	Z13	X14	Y14	Z14	X15	Y15	Z15	X16	Y16	Z16	X17	Y17	Z17	X18	Y18	Z18	X19	Y19	Z19	X20	Y20	Z20	X21	Y21	Z21	X22	Y22	Z22	X23	Y23	Z23	X24	Y24	Z24	X25	Y25	Z25	X26	Y26	Z26	X27	Y27	Z27	X28	Y28	Z28	X29	Y29	Z29	X30	Y30	Z30	X31	Y31	Z31	X32	Y32	Z32	X33	Y33	Z33	X34	Y34	Z34	X35	Y35	Z35	X36	Y36	Z36	X37	Y37	Z37	X38	Y38	Z38	X39	Y39	Z39	X40	Y40	Z40	X41	Y41	Z41	X42	Y42	Z42	X43	Y43	Z43	X44	Y44	Z44	X45	Y45	Z45	X46	Y46	Z46	X47	Y47	Z47	X48	Y48	Z48	X49	Y49	Z49	X50	Y50	Z50	X51	Y51	Z51	

225	2.24000000	134.94020	953.21176	-318.31052	78.91801	810.49556	-280.51437	31.75094	449.14543	-301.48301	-19.57178	450.39848	-371.67308	132.85215	334.18085	-274.88713	185.62201	352.64598	-315.89417	117.11396	953.48722	-794.80673	146.18832	754.13944	-803.46167	20.24357	472.64542	-826.30782	-24.60445	469.29501	-750.18262	84.47975	327.06256	-883.40369	150.99222	333.52949	-842.89775	57.92661	701.10223	-270.07268	147.16223	801.43639	-309.01680	130.37883	689.72064	-306.61760	73.96857	779.12655	-848.10186	49.01272	661.27656	-841.95887	105.82783	1250.13161	-326.85311	148.23590	1143.80517	-316.37998	94.66546	1102.15349	-305.39238	3.40018	1208.98094	-352.40000	44.19504	1099.59900	-330.41072	17.56925	1238.92122	-764.12053	47.34641	1106.54068	-790.91018	126.21393	1254.62063	-756.03763	153.49411	1124.02056	-776.26787	112.90586	1512.61535	-410.46494	-65.41332	1551.61383	-501.76281	110.14967	1501.23446	-683.80742	-64.07633	1551.42781	-593.27581	108.86419	2015.99503	-555.21398	196.98697	1966.29372	-392.82361	169.98658	1973.62940	-725.41158	240.38737	1910.94174	-528.64570	237.41481	1909.69659	-579.22872	184.97678	1739.67245	-253.55228	91.66608	1614.80825	-230.67050	125.15432	1663.02441	-164.16491	307.92067	1657.08429	-270.66039	378.18452	1655.62482	-326.09317	388.14764	1635.93136	-294.56478	211.80908	1710.01272	-821.18098	124.46868	1605.70981	-840.77367	189.77102	1632.79499	-890.10383	325.97384	1660.46514	-743.15798	361.81452	1676.63107	-682.71438	380.96978	1655.16172	-701.89152	31.19976	1420.98729	-445.33580	24.98749	1417.54391	-642.68448	37.98637	1427.68963	-450.45274	40.62375	1427.32262	-631.00459	
226	2.25000000	138.74660	941.40907	-318.25923	83.79912	798.63619	-279.58485	40.36276	436.73244	-299.77187	-11.20462	435.64253	-369.45941	143.89836	324.50662	-271.21051	196.06075	343.05435	-312.88608	120.31097	941.52015	-794.26195	150.12351	742.51859	-803.46417	25.83345	460.23082	-826.32996	-20.06083	455.00853	-750.94759	94.19413	316.38260	-883.36505	159.94151	324.21722	-841.90510	63.98479	688.70016	-269.63439	152.31139	789.79377	-308.64414	136.58868	677.38648	-306.38739	77.37420	767.34749	-847.20990	52.97626	649.30113	-841.31286	108.49851	1237.16877	-326.67701	150.90236	1131.65836	-315.94053	97.12000	1090.15904	-305.27738	6.38210	1196.73326	-353.34258	46.83222	1087.33607	-330.86887	19.97827	1226.76427	-763.48382	49.94275	1094.53980	-790.45014	128.60923	1242.71620	-756.07373	156.08596	1112.06955	-776.29959	115.89395	1500.32741	-410.36642	-62.69808	1539.37044	-501.05227	112.39873	1489.07150	-683.58037	-61.59143	1539.33669	-592.52724	112.20136	2003.59772	-554.57395	200.08688	1953.74043	-392.24778	173.07676	1961.21781	-725.05877	243.51807	1898.06493	-527.48560	240.29298	1896.88540	-578.66276	186.89622	1727.47169	-252.18246	93.22423	1600.78831	-228.73547	126.62768	1651.04533	-163.09375	309.38064	1645.13834	-269.63954	379.06599	1643.16624	-325.82560	389.62893	1623.97466	-293.63999	215.28002	1696.89973	-818.34882	128.42384	1592.06379	-837.39375	193.62044	1618.97614	-886.84835	329.42691	1648.87872	-740.08782	365.12971	1665.84782	-679.53635	384.35064	1643.98310	-697.96915	34.06894	1408.72737	-444.97767	27.29454	1405.40449	-642.30979	40.89681	1415.29752	-450.27939	43.08029	1415.23077	-630.75496	
227	2.26000000	142.65791	928.56451	-318.19495	88.92074	785.64080	-279.24593	48.85351	423.49535	-297.67667	-3.06640	420.28274	-366.91930	154.52362	313.65375	-267.85585	206.02683	332.33476	-310.16647	123.59642	928.52116	-793.46750	153.99899	729.92763	-803.52002	31.21528	446.88958	-826.24985	-15.60716	439.81898	-751.49084	103.56540	304.77600	-883.13621	168.64200	314.03019	-840.90010	69.75797	675.49678	-268.96016	157.50196	777.22903	-308.24934	142.73228	664.38821	-305.80797	80.67164	754.59535	-846.11992	56.85195	636.32952	-840.52562	111.11016	1224.07169	-326.49521	153.31588	1118.58470	-315.65694	99.65958	1077.10862	-305.23233	9.42695	1183.46259	-354.33140	49.66577	1073.95884	-331.29226	22.48545	1213.54054	-762.81820	52.69795	1081.48567	-789.94743	131.10883	1229.90366	-756.33886	158.89243	1099.24384	-776.37313	118.89956	1487.12595	-410.15253	-60.01085	1526.10014	-500.16748	114.74267	1475.95768	-683.14601	-59.06671	1526.26664	-591.75965	115.52493	1990.19901	-553.83676	203.07161	1940.28671	-391.62753	176.17427	1947.68107	-724.60578	246.41738	1884.22795	-526.73218	243.40879	1883.41018	-577.48905	188.72915	1714.39662	-250.82996	94.67523	1586.67913	-227.72970	128.21357	1638.21064	-161.86281	310.79597	1632.23396	-268.71987	380.09334	1629.92383	-325.36024	391.03152	1610.97447	-292.78967	218.72192	1682.89551	-815.73979	132.27005	1577.57191	-834.01924	197.39014	1604.23791	-883.75604	332.87943	1636.41135	-737.24786	368.48367	1654.10970	-676.49688	387.74115	1632.54798	-695.44623	36.98382	1395.51217	-444.47890	29.71280	1392.29007	-641.79526	43.87089	1401.88004	-450.06746	45.72985	1402.20793	-630.40456	
228	2.27000000	146.70484	914.69612	-318.12766	94.26244	771.40980	-279.57568	57.24827	409.32075	-295.22640	4.77974	404.42817	-364.19209	164.61920	301.54511	-264.74141	215.50949	320.36412	-307.73529	127.13697	914.65669	-792.76420	157.93108	716.34665	-803.60348	36.46058	432.57324	-826.07068	-11.16223	423.82608	-751.73778	112.51962	292.16993	-882.72604	177.01943	302.98534	-840.00862	75.52922	661.52386	-268.02802	162.74443	763.66548	-307.80347	148.76197	650.93079	-304.61003	84.00729	740.82999	-845.00580	60.66924	622.43005	-839.58192	113.78093	1210.00842	-326.10787	155.96908	1104.25948	-315.37961	102.45894	1062.73922	-305.26332	12.57245	1169.08784	-355.27793	52.75086	1059.54600	-331.79423	25.09734	1199.31967	-762.26914	55.58723	1067.34381	-789.29808	133.73877	1216.15359	-756.55911	161.87239	1085.58829	-776.39293	121.92638	1472.89109	-409.88850	-57.27469	1511.98481	-499.31242	117.09811	1461.93056	-682.67850	-56.56492	1512.19913	-591.09166	118.83259	1975.83929	-553.21510	205.93660	1925.91774	-390.85203	179.31969	1932.82397	-723.88564	248.44752	1869.20182	-527.43692	246.65657	1869.07145	-576.06202	190.49178	1700.30539	-249.62163	96.44663	1572.74988	-227.09126	129.81882	1624.30552	-160.73501	312.17983	1618.27388	-267.80509	381.45570	1615.91510	-324.37769	392.40604	1596.98895	-291.85494	222.12761	1667.94532	-813.34025	136.10465	1562.14538	-830.75203	201.08659	1588.54863	-880.80185	336.34427	1623.03226	-734.60443	371.83275	1641.39691	-673.83920	391.19445	1620.56832	-693.84085	39.85989	1381.33289	-444.00583	32.13461	1378.24169	-641.30722	46.77970	1387.78475	-449.62149	48.17401	1388.20602	-629.83022	
